<svg id="Layer_1" data-name="Layer 1" xmlns="http://www.w3.org/2000/svg" viewBox="0 0 1080 1080"><defs><style>.cls-1{fill:#f5f5f5;}</style></defs><title>Assets - EPX Logo, Word &amp;amp; Combination Marks</title><path class="cls-1" d="M655.41,452.69a49,49,0,0,0-28.1-28.09c-5.22-2-13.06-4.45-27.49-5.1-15.61-.72-20.29-.87-59.82-.87s-44.21.15-59.82.87c-14.43.65-22.27,3.07-27.49,5.1a49,49,0,0,0-28.1,28.09c-2,5.22-4.43,13.05-5.09,27.49-.71,15.61-.86,20.29-.86,59.82s.15,44.21.86,59.82c.66,14.44,3.07,22.27,5.09,27.49a49.1,49.1,0,0,0,28.1,28.1c5.22,2,13.06,4.44,27.49,5.1,15.61.71,20.29.86,59.82.86s44.21-.15,59.82-.86c14.43-.66,22.27-3.07,27.49-5.1a49.1,49.1,0,0,0,28.1-28.1c2-5.22,4.44-13,5.09-27.49.72-15.61.87-20.29.87-59.82s-.15-44.21-.87-59.82C659.85,465.74,657.43,457.91,655.41,452.69ZM540,616a76,76,0,1,1,76-76A76,76,0,0,1,540,616Zm79-137.28A17.77,17.77,0,1,1,636.79,461,17.76,17.76,0,0,1,619,478.74Z"/><circle class="cls-1" cx="540" cy="540" r="49.35"/><path class="cls-1" d="M540,270c-149.12,0-270,120.88-270,270h0c0,149.12,120.88,270,270,270S810,689.12,810,540h0C810,390.88,689.12,270,540,270ZM687.15,601c-.72,15.76-3.22,26.52-6.88,35.93a75.6,75.6,0,0,1-43.3,43.3c-9.41,3.66-20.17,6.16-35.93,6.88s-20.83.89-61,.89-45.25-.17-61-.89-26.52-3.22-35.93-6.88a75.68,75.68,0,0,1-43.3-43.3c-3.66-9.41-6.16-20.17-6.88-35.93s-.89-20.83-.89-61,.17-45.24.89-61,3.22-26.51,6.88-35.93a75.76,75.76,0,0,1,43.3-43.3c9.41-3.66,20.18-6.16,35.93-6.88s20.84-.89,61-.89,45.25.17,61,.89,26.52,3.22,35.93,6.88a75.68,75.68,0,0,1,43.3,43.3c3.66,9.42,6.16,20.18,6.88,35.93s.89,20.84.89,61S687.87,585.25,687.15,601Z"/></svg>