<svg id="Layer_1" data-name="Layer 1" xmlns="http://www.w3.org/2000/svg" viewBox="0 0 1080 1080"><defs><style>.cls-1{fill:#f5f5f5;}</style></defs><title>Assets - EPX Logo, Word &amp;amp; Combination Marks</title><path class="cls-1" d="M540,270c-149.12,0-270,120.88-270,270h0c0,149.12,120.88,270,270,270S810,689.12,810,540h0C810,390.88,689.12,270,540,270ZM473.45,660.34H417.57V479.81h55.88ZM445.24,456.17a33.31,33.31,0,1,1,33-33.31A33.17,33.17,0,0,1,445.24,456.17ZM682.86,660.34H627.24V565.57c0-26-9.87-40.5-30.42-40.5-22.37,0-34.05,15.13-34.05,40.5v94.77h-53.6V479.81h53.6v24.32s16.12-29.83,54.41-29.83,65.68,23.38,65.68,71.74Z"/></svg>