<svg id="Layer_1" data-name="Layer 1" xmlns="http://www.w3.org/2000/svg" viewBox="0 0 1080 1080"><defs><style>.cls-1{fill:#f5f5f5;}</style></defs><title>Assets - EPX Logo, Word &amp;amp; Combination Marks</title><path class="cls-1" d="M625.65,522.32q-9.07-6.3-23.43-6.3-17.4,0-29.17,8.57t-11.78,21.19a21.3,21.3,0,0,0,8.55,17.55q8.53,6.75,22.52,6.74,18.15,0,30.26-9.13t12.12-22.56Q634.72,528.63,625.65,522.32Zm-17.93,7.61q-1.65,4.86-5.69,17.56t-5.09,15a10.71,10.71,0,0,1-2.52,3.61,5.41,5.41,0,0,1-3.76,1.3,4.3,4.3,0,0,1-3.1-1.18,3.94,3.94,0,0,1-1.25-3,15.54,15.54,0,0,1,1-5l10.56-32.19a16.59,16.59,0,0,1,2.7-5.34,5.16,5.16,0,0,1,4.2-1.93,4.61,4.61,0,0,1,3.26,1.25,3.86,3.86,0,0,1,1.34,2.92A25.2,25.2,0,0,1,607.72,529.93Z"/><path class="cls-1" d="M482.79,503.5a17.75,17.75,0,0,0,9.95,2.57,22.54,22.54,0,0,0,12.42-3.54q5.54-3.54,5.53-8a7.83,7.83,0,0,0-3.82-6.71A17.21,17.21,0,0,0,497,485.2a22.26,22.26,0,0,0-12.61,3.63q-5.48,3.63-5.47,8.23Q478.88,500.92,482.79,503.5Z"/><path class="cls-1" d="M552,519.71q-6.22-3.57-15.85-3.57-11.8,0-19.76,5.4T508.46,535a10.41,10.41,0,0,0,1.77,6.09q1.77,2.55,8,7.51,8.76,7.09,10.57,8.95a5.61,5.61,0,0,1,1.8,3.92,4.67,4.67,0,0,1-2,4,9.15,9.15,0,0,1-5.53,1.46,21.66,21.66,0,0,1-12.43-3.66q6.84-1.56,6.84-7.77a8,8,0,0,0-2.67-6.06,8.92,8.92,0,0,0-6.34-2.51,9.41,9.41,0,0,0-6.53,2.39,7.63,7.63,0,0,0-2.67,5.93c0,2.59,1.28,5,3.77,7.22-1.06.23-2.35.59-5,1.09-3.71.69-6.08.76-7.23.32-2.19-.83-1.76-2.05-1.59-3,.11-.61.36-1.47.41-1.65.09-.35,1.67-5.33,4.78-14.94l1.74-5.36,7.46-23c-2.72.35-5.45.64-8.2.91-2.21.2-4.44.37-6.67.53l-1.41.11q-8.14.52-16.48.59c-.83,0-1.64,0-2.47,0h-3.54l-.75,2.48h8.39l-10.13,30.94a27.26,27.26,0,0,0-1.74,8q0,4.41,4.88,7.49a22.48,22.48,0,0,0,12.21,3.07c10.13,0,14.46-2.08,28.06-5.6.54.35,1.1.7,1.7,1a37.63,37.63,0,0,0,18.71,4.56q11.24,0,19-5.34t7.73-13a13.67,13.67,0,0,0-3.66-9.25q-3.67-4.17-16.66-13.24-3.4-2.49-3.41-4.72a4.15,4.15,0,0,1,2.54-3.73,15.18,15.18,0,0,1,7.09-1.37,23.69,23.69,0,0,1,8.95,1.81,7.68,7.68,0,0,0-3.79,2.92,7.72,7.72,0,0,0,.93,10,8.18,8.18,0,0,0,5.9,2.27,7.27,7.27,0,0,0,5.41-2.15,7.6,7.6,0,0,0,2.11-5.56Q558.23,523.29,552,519.71Z"/><path class="cls-1" d="M446.82,517.12h0c-.47-.15-.95-.29-1.44-.41l-.16,0c-.45-.11-.9-.2-1.37-.27l-.54-.07c-.36-.05-.73-.1-1.1-.13-.59,0-1.18-.07-1.79-.07s-1.06,0-1.59.05h0c-.47,0-.94.06-1.41.1h0c-.77.07-1.53.16-2.29.29l-.23,0c-.79.14-1.58.29-2.37.48a24.73,24.73,0,0,0-4.76,1.83l-.21.1-1.23.62-.35.19-1.19.64-.54.31-1.11.63-.48.29-1.24.74-.05,0,2.3-7c-1.16.21-2.36.41-3.59.6a212.72,212.72,0,0,1-31.26,2c-.25,0-1.66.09-3.14.17a23.83,23.83,0,0,0-2.72.4,12.86,12.86,0,0,0-2.44.75,10.57,10.57,0,0,0-2.18,1.25,19.39,19.39,0,0,0-2.39,1.94,25.08,25.08,0,0,0-3.73,4.69,29.23,29.23,0,0,0-2.11,3.73c-.59,1.29-1,2.61-1.33,3.41q-1.47,4.47-2.92,9c-.41,1.19-3.16,9.29-4.53,13.31a14.73,14.73,0,0,1-1.49,3,16,16,0,0,1-5.09,4.77,25.79,25.79,0,0,1-9,2.36c-4.14.06-3.73,0-7,0H319l3.28-9.42,9.91-30.28q6.65.18,10.56,3.72a12.06,12.06,0,0,1,3.91,9.39,26,26,0,0,1-1.36,7.64h3l13.49-41.51h-3q-2.61,5.85-9.13,11.59a22.42,22.42,0,0,1-15.29,5.75h-1.06l11.13-34.36h3.29q11.25,0,19.29,5.93t8.05,14.14a34.29,34.29,0,0,1-.62,5.34h3l9.32-28.33H297.09L296,489.3H306.1l-25.17,77.48H270.87L270,569.7h68.71c3.17,0,3.84-.08,7-.08a28.41,28.41,0,0,0,10-2.51,18.18,18.18,0,0,0,6.61-6,21.09,21.09,0,0,0,1.72-3.74c1.1-3.56,1.59-5.13,4.48-14,1-3,2.18-6,3.16-9,.48-1.16.74-1.82,1.25-2.8.91-1.77,1.26-2.3,1.7-3a34,34,0,0,1,3.24-4.2,12.59,12.59,0,0,1,3.08-2.38,13.9,13.9,0,0,1,2.47-.86,23.1,23.1,0,0,1,2.49-.44,40.76,40.76,0,0,1,6.31-.14L368.4,593.37H361l-.87,2.55H405.3l.75-2.55h-7.77l10.07-30.81c.57.54,1.11,1.05,1.66,1.53l.41.35c.44.38.88.75,1.31,1.08l.28.22a23.13,23.13,0,0,0,3.12,2.08h0c.48.26.93.48,1.38.67h0l.2.08h0a10.27,10.27,0,0,0,1.35.46,29,29,0,0,0,6.65,1c.95,0,1.89-.05,2.82-.14l.23,0c.89-.09,1.77-.23,2.64-.4l.33-.06c.85-.18,1.69-.41,2.52-.66l.36-.11c.83-.27,1.65-.58,2.46-.92l.34-.15c.81-.36,1.62-.76,2.42-1.2l.28-.15c.81-.46,1.63-1,2.43-1.51l.16-.11a40.21,40.21,0,0,0,5-4.08h0l.07-.07h0c.45-.43.9-.88,1.35-1.34q10.47-10.93,10.47-24.67,0-8.15-5.1-13.23A16.8,16.8,0,0,0,446.82,517.12Zm-17.41,13q-.68,2.28-3.85,11.9L421,555.91c-.13.42-.26.81-.39,1.18q-.53,1.56-.93,2.61l0,.1c-.12.32-.24.59-.34.84l-.05.1h0q-.16.36-.3.6a4.79,4.79,0,0,1-1.49,1.74,3.27,3.27,0,0,1-1.86.53q-2.24,0-6.15-4.47l3.77-11.62,0,0,.87-2.66,6.09-18.73c2.85-2,5.26-3,7.2-3,1.79,0,2.68,1.08,2.68,3.23A13.53,13.53,0,0,1,429.41,530.15Z"/><path class="cls-1" d="M790.24,527.32a1.32,1.32,0,0,1,1.06.44,14.54,14.54,0,0,1,1.24,2.11,10,10,0,0,0,3.48,3.64,8.64,8.64,0,0,0,4.66,1.46,9,9,0,0,0,6.52-2.8,9.06,9.06,0,0,0,2.8-6.65,9.15,9.15,0,0,0-2.7-6.62,8.77,8.77,0,0,0-6.5-2.76,11.12,11.12,0,0,0-5.78,1.77q-2.91,1.77-15.09,15.5-3.54-10.93-8.48-14.1a22,22,0,0,0-12.09-3.17c-5.63,0-11.19,1.22-15.69,4.33a53.55,53.55,0,0,0-12.81,13c-.59.81-2.09,3.19-3.79,5.94l-2.29,3.75-1.08,1.78c-1.38,2.29-2.59,4.31-3.23,5.4-2.74,4.33-3.82,5.7-5.6,8.12s-3.13,3.64-4,3.64a1.68,1.68,0,0,1-1.12-.53,1.58,1.58,0,0,1-.56-1.15,14.13,14.13,0,0,1,1.06-4l23.49-72.26a241.52,241.52,0,0,1-35.85,2.3H694.8l-.81,2.54h8.45l-9.94,30.64q-4.15-3.42-11.56-3.42-15.78,0-28.58,11.22t-12.8,24.88a16.39,16.39,0,0,0,5.66,12.8q5.65,5,14.41,5,12,0,22.31-9.81A14,14,0,0,0,688,567.4a17.58,17.58,0,0,0,2.6,1.31,21.78,21.78,0,0,0,7.25,1.36c8.68.06,16.64-4.79,20-10.17,1.5-2.36,4.16-6.32,5-7.81l0,0c.56-.95,1.19-2,1.83-3.11l1.1-1.87c2.81-4.8,5.91-10.05,7.71-12.44,1.41-1.86,6.33-8.36,10.61-7.44a3.64,3.64,0,0,1,2.45,1.49,48.59,48.59,0,0,1,3.45,7.83l6.28,16.28a69.9,69.9,0,0,1-5,5.78q-5,5.53-6.09,5.53c-.75,0-1.12-.48-1.12-1.43l.12-3.67a8.33,8.33,0,0,0-2.61-6.24,8.71,8.71,0,0,0-6.27-2.52,9.59,9.59,0,0,0-6.9,2.67,8.92,8.92,0,0,0-2.79,6.71,9.82,9.82,0,0,0,3.16,7.46,11.25,11.25,0,0,0,8,3,17.16,17.16,0,0,0,7.61-1.77q3.63-1.77,13-12.58a60.18,60.18,0,0,0,4.35,8.48,12,12,0,0,0,5.9,4.29,30.07,30.07,0,0,0,10.62,1.58q11.57,0,16.41-5.09t6.09-16.53l-2.43-.62q-1.8,12.74-6,12.74a2.43,2.43,0,0,1-2.21-1.65q-.76-1.65-9.1-22.71l5.22-5.78C788.31,528.36,789.58,527.32,790.24,527.32ZM683.31,548.2a38,38,0,0,0-2,9.26q-6.21,5.34-9.45,5.34c-1.7,0-2.54-1-2.54-3a14.53,14.53,0,0,1,.87-4.66l9.56-29.58a12.53,12.53,0,0,1,2.55-4.69,4.89,4.89,0,0,1,3.67-1.65c1.94,0,3.87.94,5.78,2.8Z"/></svg>