<svg id="Layer_1" data-name="Layer 1" xmlns="http://www.w3.org/2000/svg" viewBox="0 0 1080 1080"><defs><style>.cls-1{fill:#f5f5f5;}</style></defs><title>Assets - EPX Logo, Word &amp;amp; Combination Marks</title><path class="cls-1" d="M711.29,504.65Q693.14,492,664.44,492q-34.8,0-58.34,17.15t-23.55,42.38q0,21.62,17.08,35.1t45,13.49q36.29,0,60.52-18.27t24.23-45.11Q729.43,517.26,711.29,504.65Zm-35.85,15.22q-3.3,9.69-11.37,35.11t-10.19,30a21.73,21.73,0,0,1-5,7.2,10.88,10.88,0,0,1-7.52,2.61,8.66,8.66,0,0,1-6.21-2.36,7.86,7.86,0,0,1-2.49-6,30.82,30.82,0,0,1,2-9.94l21.12-64.38a33.19,33.19,0,0,1,5.41-10.68,10.32,10.32,0,0,1,8.39-3.86,9.22,9.22,0,0,1,6.52,2.49,7.73,7.73,0,0,1,2.67,5.84Q678.73,510.18,675.44,519.87Z"/><path class="cls-1" d="M425.59,467q7.83,5.16,19.88,5.16a45.09,45.09,0,0,0,24.85-7.08q11.07-7.1,11.07-16,0-8.19-7.65-13.42t-19.82-5.22a44.51,44.51,0,0,0-25.22,7.27q-10.93,7.27-10.94,16.47Q417.76,461.84,425.59,467Z"/><path class="cls-1" d="M564,499.43q-12.42-7.15-31.69-7.15-23.61,0-39.52,10.81t-15.9,26.84a20.78,20.78,0,0,0,3.54,12.18q3.54,5.1,16,15Q514,571.31,517.55,575t3.61,7.83a9.42,9.42,0,0,1-4,8q-4,2.93-11.06,2.92a43.18,43.18,0,0,1-24.85-7.33q13.67-3.11,13.67-15.54a16,16,0,0,0-5.34-12.11,17.89,17.89,0,0,0-12.68-5,18.86,18.86,0,0,0-13.05,4.79,15.28,15.28,0,0,0-5.34,11.86c0,5.17,2.55,10,7.53,14.44-2.11.46-4.71,1.19-10.1,2.19-7.43,1.36-12.15,1.51-14.45.63-4.39-1.66-3.53-4.1-3.19-6.06.21-1.23.72-2.95.81-3.3q.28-1.05,9.57-29.89l3.48-10.71,14.92-46q-8.14,1-16.4,1.81c-4.42.42-8.88.75-13.34,1.07-.95.06-1.88.15-2.83.22q-16.27,1-33,1.18c-1.65,0-3.28.07-4.94.07h-7.08l-1.49,5h16.77L384.58,563q-3.48,10.32-3.48,16,0,8.82,9.75,15t24.42,6.15c20.26,0,28.92-4.17,56.14-11.2,1.07.7,2.18,1.38,3.39,2.06q16.29,9.13,37.41,9.14,22.5,0,38-10.69t15.46-26A27.34,27.34,0,0,0,558.31,545Q551,536.65,525,518.5q-6.84-5-6.83-9.44,0-4.72,5.09-7.46t14.17-2.73a47.6,47.6,0,0,1,17.89,3.6,15.63,15.63,0,0,0-7.58,5.84,15.11,15.11,0,0,0-2.86,8.82,14.92,14.92,0,0,0,4.73,11.25,16.36,16.36,0,0,0,11.8,4.54,14.51,14.51,0,0,0,10.81-4.29,15.17,15.17,0,0,0,4.23-11.12Q576.46,506.58,564,499.43Z"/><path class="cls-1" d="M353.63,494.25h0c-.94-.3-1.9-.58-2.89-.82l-.31-.06c-.9-.21-1.81-.4-2.74-.54-.35-.06-.72-.1-1.08-.14-.73-.09-1.45-.2-2.2-.25-1.17-.1-2.36-.15-3.58-.15-1.06,0-2.12,0-3.18.1h0c-.93,0-1.87.12-2.81.21h-.05c-1.53.14-3.05.33-4.58.58l-.45.07c-1.58.27-3.16.58-4.74,1a50.56,50.56,0,0,0-9.52,3.64l-.42.21c-.8.4-1.62.8-2.46,1.24l-.69.37-2.4,1.29-1.06.61-2.24,1.27-.94.57c-.82.48-1.63,1-2.48,1.49,0,0-.06,0-.1.06l4.6-13.92c-2.32.43-4.72.82-7.2,1.2q-25.71,3.9-62.52,3.89c-.48,0-3.31.2-6.28.35a47.73,47.73,0,0,0-5.44.81,25.8,25.8,0,0,0-4.87,1.48,22.12,22.12,0,0,0-4.37,2.52,36.93,36.93,0,0,0-4.77,3.87,50.71,50.71,0,0,0-7.46,9.37,57.28,57.28,0,0,0-4.21,7.47c-1.19,2.57-2,5.22-2.67,6.82l-5.85,17.89c-.81,2.4-6.31,18.59-9,26.63a29.2,29.2,0,0,1-3,6,32.1,32.1,0,0,1-10.17,9.54c-4.34,2.35-13.47,4.65-18,4.72-8.27.11-7.47,0-14,0H98l6.56-18.85,19.8-60.56q13.3.38,21.13,7.46t7.83,18.76a52,52,0,0,1-2.73,15.29h6.08l27-83h-6.09q-5.22,11.69-18.27,23.18a44.74,44.74,0,0,1-30.57,11.5h-2.11l22.24-68.73h6.59q22.5,0,38.59,11.87t16.09,28.27a68.56,68.56,0,0,1-1.24,10.69H215l18.64-56.67H54.18l-2.11,5.84H72.2l-50.33,155H1.74L0,599.4H137.42c6.33,0,7.68-.16,14-.16,3.87,0,14.85-2.15,19.93-5,3.84-2.14,9.63-6.19,13.21-12.07a45.39,45.39,0,0,0,3.45-7.48c2.19-7.12,3.17-10.26,9-28,1.95-6,4.35-11.94,6.3-17.9,1-2.33,1.48-3.65,2.5-5.62,1.84-3.53,2.54-4.59,3.41-6a67.4,67.4,0,0,1,6.47-8.42c3.58-3.3,5-4.17,6.16-4.74a24.82,24.82,0,0,1,4.95-1.72,41.56,41.56,0,0,1,5-.89,84.47,84.47,0,0,1,12.64-.28q-23.8,72.82-47.6,145.65H182l-1.74,5.09h90.35l1.49-5.09H256.56l20.14-61.64c1.13,1.1,2.23,2.1,3.32,3.07l.82.71q1.34,1.14,2.61,2.16l.57.44a47.69,47.69,0,0,0,6.23,4.15h0l0,0A27.46,27.46,0,0,0,293,597l0,0,.4.17s0,0,0,0a23.22,23.22,0,0,0,2.71.9,57.51,57.51,0,0,0,13.29,2.06c1.9,0,3.78-.11,5.64-.29.15,0,.31,0,.46,0,1.78-.19,3.53-.46,5.27-.81l.67-.13c1.7-.35,3.38-.8,5-1.31l.72-.23c1.66-.54,3.29-1.15,4.91-1.84.23-.1.46-.19.68-.3,1.64-.72,3.26-1.51,4.85-2.39l.55-.31c1.64-.92,3.26-1.91,4.86-3l.33-.23a79.72,79.72,0,0,0,10-8.17v0a1,1,0,0,1,.15-.14l0,0c.9-.87,1.79-1.77,2.68-2.7q20.94-21.85,20.94-49.33,0-16.28-10.19-26.47A33.48,33.48,0,0,0,353.63,494.25Zm-34.81,26q-1.36,4.55-7.7,23.8l-9.07,27.71c-.27.84-.53,1.62-.78,2.37-.7,2.09-1.32,3.82-1.87,5.22a1.19,1.19,0,0,1-.08.2c-.24.64-.47,1.19-.68,1.67l-.09.2h0c-.22.47-.42.89-.59,1.2a9.81,9.81,0,0,1-3,3.49,6.64,6.64,0,0,1-3.72,1.05q-4.49,0-12.31-9l7.56-23.22,0-.12,1.72-5.32,12.18-37.45q8.58-6,14.42-6,5.34,0,5.34,6.46A27.05,27.05,0,0,1,318.82,520.3Z"/><path class="cls-1" d="M1040.48,514.65a2.65,2.65,0,0,1,2.12.87,28.71,28.71,0,0,1,2.48,4.22,19.56,19.56,0,0,0,7,7.27,17.17,17.17,0,0,0,9.32,2.92,17.88,17.88,0,0,0,13.05-5.59,18.75,18.75,0,0,0,.18-26.53,17.52,17.52,0,0,0-13-5.53,22.22,22.22,0,0,0-11.56,3.54q-5.83,3.54-30.2,31-7.08-21.87-17-28.21t-24.17-6.34c-11.27,0-22.37,2.44-31.39,8.65a107.5,107.5,0,0,0-25.62,25.92c-1.17,1.63-4.17,6.39-7.56,11.9-1.5,2.43-3,5-4.59,7.49l-2.16,3.57c-2.76,4.56-5.18,8.62-6.46,10.8-5.49,8.66-7.64,11.39-11.2,16.23s-6.25,7.27-8.08,7.27a3.29,3.29,0,0,1-2.23-1.05,3.11,3.11,0,0,1-1.12-2.3c0-1.57.7-4.27,2.11-8.08l47-144.52q-30.06,4.59-71.7,4.59H849.6l-1.61,5.1h16.9L845,499.12q-8.31-6.84-23.11-6.84-31.56,0-57.16,22.43t-25.6,49.77q0,15.54,11.31,25.6t28.83,10.07q24,0,44.61-19.64A28,28,0,0,0,836,594.8a35.71,35.71,0,0,0,5.2,2.63,43.84,43.84,0,0,0,14.49,2.72c17.38.1,33.29-9.59,40.09-20.34,3-4.74,8.31-12.64,10.09-15.63l0-.06c1.13-1.9,2.38-4,3.66-6.22l2.19-3.74c5.62-9.59,11.83-20.1,15.42-24.88,2.82-3.71,12.67-16.71,21.23-14.88a7.35,7.35,0,0,1,4.91,3q2,3,6.89,15.66l12.56,32.56q0,.49-10,11.56t-12.18,11.06c-1.49,0-2.23-1-2.23-2.86l.25-7.33a16.64,16.64,0,0,0-5.22-12.49,17.43,17.43,0,0,0-12.55-5,19.23,19.23,0,0,0-13.8,5.35,17.76,17.76,0,0,0-5.59,13.42,19.62,19.62,0,0,0,6.34,14.91q6.33,6,16,6a34.2,34.2,0,0,0,15.22-3.55q7.27-3.54,26-25.16a119.46,119.46,0,0,0,8.69,17c2.41,3.6,6.34,6.47,11.81,8.57s12.55,3.18,21.25,3.18q23.11,0,32.81-10.19t12.17-33.06l-4.84-1.24q-3.62,25.47-11.93,25.47c-1.91,0-3.38-1.09-4.41-3.29s-7.11-17.34-18.21-45.42l10.44-11.56Q1038.5,514.65,1040.48,514.65ZM826.61,556.4q-3.72,11.94-4,18.52-12.43,10.7-18.89,10.69-5.1,0-5.1-6.09a29.07,29.07,0,0,1,1.74-9.32L819.53,511a24.6,24.6,0,0,1,5.1-9.38,9.76,9.76,0,0,1,7.33-3.29q5.84,0,11.56,5.59Z"/></svg>