<svg id="Layer_1" data-name="Layer 1" xmlns="http://www.w3.org/2000/svg" viewBox="0 0 1080 1080"><defs><style>.cls-1{fill:#f5f5f5;}</style></defs><title>Assets - EPX Logo, Word &amp;amp; Combination Marks</title><path class="cls-1" d="M540,270c-149.12,0-270,120.88-270,270h0c0,149.12,120.88,270,270,270S810,689.12,810,540h0C810,390.88,689.12,270,540,270ZM654.4,481.32c3.73,83-58.18,175.59-167.78,175.59a167.07,167.07,0,0,1-90.48-26.52,118.61,118.61,0,0,0,87.39-24.45,59,59,0,0,1-55.13-41A59.05,59.05,0,0,0,455,564c-28.38-5.71-48-31.28-47.34-58.64a58.74,58.74,0,0,0,26.75,7.39,59.09,59.09,0,0,1-18.27-78.81,167.51,167.51,0,0,0,121.66,61.68,59.07,59.07,0,0,1,100.59-53.84A118.39,118.39,0,0,0,675.9,427.4,59.09,59.09,0,0,1,650,460.05a118.05,118.05,0,0,0,33.9-9.29A119.9,119.9,0,0,1,654.4,481.32Z"/></svg>